<svg width="75" height="75" viewBox="0 0 75 75" fill="none" xmlns="http://www.w3.org/2000/svg">
<path d="M74.5042 25.5194C74.0996 24.967 73.504 24.6052 72.8273 24.5008L51.0393 21.136V2.56481C51.0393 1.15139 49.8893 0.00134277 48.4759 0.00134277H2.56347C1.15004 0.00134277 0 1.15139 0 2.56481V48.5062C0 49.9197 1.15004 51.0697 2.56347 51.0697H19.6737L17.5165 65.0388C17.303 66.4211 18.2763 67.7504 19.6587 67.9637L65.0331 74.971C66.3843 75.1796 67.7474 74.19 67.9576 72.8287L69.131 65.231C69.3478 63.8273 67.1762 63.4915 66.9595 64.8957C66.8117 65.8524 66.1291 72.9138 65.3684 72.7995L19.994 65.7922C19.7766 65.7374 19.6745 65.5981 19.688 65.3743L21.897 51.0698H24.3554L22.5685 62.6406C22.4759 63.2403 22.8869 63.8015 23.4866 63.8941L62.611 69.9362C63.1632 70.0212 63.7776 69.5801 63.8644 69.0181L69.9173 29.824C70.0099 29.2243 69.5988 28.6631 68.9991 28.5705L51.0392 25.7968V23.3594L72.4919 26.6724C72.7093 26.7272 72.8112 26.8665 72.7979 27.0903L66.9595 64.8957C66.7487 66.2605 68.9107 66.6579 69.131 65.231L74.9694 27.4256C75.074 26.7488 74.9086 26.0719 74.5042 25.5194ZM2.19726 48.5062V2.56481C2.19726 2.36281 2.36161 2.1986 2.56347 2.1986H48.4757C48.6776 2.1986 48.8419 2.36281 48.8419 2.56481V48.5062C48.8419 48.7082 48.6776 48.8724 48.4757 48.8724H2.56347C2.36161 48.8724 2.19726 48.7082 2.19726 48.5062ZM67.5781 30.5743L61.8605 67.5969L24.9077 61.89L26.5788 51.0697H48.4757C49.8892 51.0697 51.0392 49.9197 51.0392 48.5062V28.02L67.5781 30.5743Z" fill="#364C49"/>
<path d="M45.3139 4.60767H5.72558C5.11885 4.60767 4.62695 5.09941 4.62695 5.70629L4.62695 20.0002C4.62695 21.4207 6.82421 21.4207 6.82421 20.0002V6.80492H44.2151V44.2664H6.82421V17.0409C6.82421 15.6205 4.62695 15.6205 4.62695 17.0409V45.365C4.62695 45.9719 5.11885 46.4637 5.72558 46.4637H45.3137C45.9204 46.4637 46.4123 45.9719 46.4123 45.365V5.70629C46.4125 5.09941 45.9206 4.60767 45.3139 4.60767Z" fill="#364C49"/>
<path d="M25.5188 36.4648C25.6623 36.4648 25.8057 36.4368 25.9406 36.3806C26.0639 36.3293 28.9939 35.0986 31.9731 32.7731C36.0345 29.6029 38.2085 25.9081 38.2601 22.0881C38.314 18.0923 35.2699 14.2001 31.082 14.2001C28.8908 14.2001 26.8609 15.2909 25.5187 17.0946C24.1766 15.2909 22.1468 14.2001 19.9554 14.2001C15.9974 14.2001 12.7773 17.7318 12.7773 22.0732C12.7773 31.2708 24.602 36.1796 25.1053 36.384C25.238 36.438 25.3785 36.4648 25.5188 36.4648ZM14.9748 22.0732C14.9748 18.9435 17.2091 16.3973 19.9555 16.3973C21.9087 16.3973 23.6916 17.7107 24.4976 19.7433C24.857 20.6498 26.1807 20.6498 26.5401 19.7433C27.3459 17.7107 29.1288 16.3973 31.082 16.3973C34.0545 16.3973 36.1007 19.2654 36.0629 22.0584C35.9712 28.8588 27.5069 33.2287 25.5131 34.1638C23.5053 33.2442 14.9748 28.9322 14.9748 22.0732Z" fill="#F23942"/>
</svg>
