<svg width="75" height="75" viewBox="0 0 75 75" fill="none" xmlns="http://www.w3.org/2000/svg">
<g clip-path="url(#clip0_529:511)">
<path d="M17.3956 49.6476H50.767C52.088 49.6476 53.1626 48.573 53.1626 47.252V7.19468C53.1626 5.87368 52.088 4.79907 50.767 4.79907H17.3956C16.0746 4.79907 15 5.87368 15 7.19468V47.252C15 48.5729 16.0746 49.6476 17.3956 49.6476ZM17.1973 7.19468C17.1973 7.08525 17.2862 6.99634 17.3956 6.99634H50.767C50.8763 6.99634 50.9653 7.08525 50.9653 7.19468V47.252C50.9653 47.3614 50.8764 47.4503 50.767 47.4503H17.3956C17.2862 47.4503 17.1973 47.3614 17.1973 47.252V7.19468Z" fill="#364C49"/>
<path d="M23.2737 30.5705L23.457 30.3845V38.465C23.457 39.9291 24.648 41.1201 26.112 41.1201H42.1683C43.6322 41.1201 44.8233 39.929 44.8233 38.465V30.3844L45.0069 30.5707C46.1932 31.7744 48.1182 31.7783 49.3117 30.6025C49.8909 30.0318 50.2133 29.2696 50.2192 28.4565C50.2252 27.6435 49.9142 26.8766 49.3435 26.2974L36.3086 13.0677C35.1189 11.8601 33.1627 11.8588 31.9718 13.0677L18.9366 26.2974C17.7587 27.4932 17.7731 29.4243 18.9687 30.6026C20.1644 31.7804 22.0957 31.7662 23.2737 30.5705ZM42.626 38.465C42.626 38.7176 42.4207 38.9228 42.1683 38.9228H26.1121C25.8596 38.9228 25.6544 38.7174 25.6544 38.465V28.1544L34.1404 19.5416L42.6262 28.1543V38.465H42.626ZM20.5019 27.8395L33.5371 14.6097C33.8677 14.274 34.4122 14.2736 34.7434 14.6097L47.7783 27.8395C48.1062 28.1722 48.1022 28.7095 47.7696 29.0373C47.4359 29.3659 46.9003 29.3618 46.5719 29.0284L34.9227 17.2052C34.4925 16.7683 33.7873 16.7688 33.3575 17.2052L21.7084 29.0282C21.3805 29.3607 20.8432 29.3648 20.5107 29.0371C20.1782 28.7096 20.1742 28.1722 20.5019 27.8395Z" fill="#F23942"/>
<path d="M28.8016 27.9801C27.1863 30.024 28.3219 32.7197 30.1082 34.1589L33.0452 36.5222C33.6813 37.0337 34.6043 37.0338 35.2403 36.5214L38.1731 34.1585C39.0958 33.4152 39.7648 32.4225 40.1075 31.2878C40.4515 30.1495 40.2165 28.913 39.4793 27.9799C38.3853 26.5959 36.3256 25.9851 34.1404 27.4549C31.9796 26.0012 29.9122 26.5747 28.8016 27.9801ZM37.7554 29.3425C38.0474 29.712 38.1404 30.2017 38.0042 30.6525C37.7899 31.3621 37.3717 31.9828 36.7947 32.4476L34.1423 34.5846L31.4864 32.4476C30.6811 31.7989 29.7236 30.3574 30.5256 29.3425C31.3 28.3624 32.4811 28.8323 33.405 29.6649C33.8229 30.0415 34.4579 30.0415 34.876 29.6649C35.8049 28.8278 36.9832 28.3656 37.7554 29.3425Z" fill="#F23942"/>
<path d="M53 59.4651V55.5091C53 54.1881 51.9254 53.1135 50.6044 53.1135H17.3956C16.0746 53.1135 15 54.1881 15 55.5091V59.4651C15 60.7861 16.0746 61.8607 17.3956 61.8607H50.6045C51.9254 61.8607 53 60.7859 53 59.4651ZM17.1973 59.4651V55.5091C17.1973 55.3997 17.2862 55.3108 17.3956 55.3108H50.6045C50.7138 55.3108 50.8029 55.3997 50.8029 55.5091V59.4651C50.8029 59.5745 50.714 59.6634 50.6045 59.6634H17.3956C17.2862 59.6634 17.1973 59.5744 17.1973 59.4651Z" fill="#364C49"/>
<path d="M71.1756 45.768H67.2267V43.6818C67.2267 43.075 66.735 42.5832 66.1281 42.5832C65.5212 42.5832 65.0294 43.075 65.0294 43.6818V45.768H63.5535V32.6309C63.5535 32.0241 63.0617 31.5322 62.4548 31.5322H57.4347V30.0563H64.5119C64.7973 30.0563 65.0294 30.2884 65.0294 30.5738V44.7249C65.0294 45.3316 65.5212 45.8235 66.1281 45.8235C66.735 45.8235 67.2267 45.3316 67.2267 44.7249V30.5738C67.2267 29.0769 66.009 27.859 64.5119 27.859H57.4347V2.52539C57.4347 1.13291 56.3018 0 54.9093 0C53.8905 0 5.70913 0 4.85278 0C2.78867 0 1.10938 1.6793 1.10938 3.74341V21C1.10938 21.6067 1.60127 22.0986 2.20801 22.0986C2.81475 22.0986 3.30664 21.6067 3.30664 21V3.74341C3.30664 2.89087 4.00024 2.19727 4.85278 2.19727H10.8607V64.4623H4.85278C4.00024 64.4623 3.30664 63.7689 3.30664 62.9164V15.5851C3.30664 14.9783 2.81475 14.4864 2.20801 14.4864C1.60127 14.4864 1.10938 14.9783 1.10938 15.5851V62.9164C1.10938 64.9805 2.78867 66.6596 4.85278 66.6596H35.0675V72.2851C35.0675 73.782 36.2854 74.9999 37.7825 74.9999H71.1758C72.6727 74.9999 73.8906 73.782 73.8906 72.2851V48.4828C73.8904 46.9859 72.6726 45.768 71.1756 45.768ZM57.4345 33.7295H61.3561V45.768H57.4345V33.7295ZM57.4345 64.1342V51.6384H68.0201V69.1295H40.9379V66.6596H54.9091C56.3016 66.6596 57.4345 65.5269 57.4345 64.1342ZM13.0578 64.4623V2.19727H54.9091C55.09 2.19727 55.2373 2.34448 55.2373 2.52539V64.1342C55.2373 64.3151 55.09 64.4623 54.9091 64.4623C52.9436 64.4623 14.4677 64.4623 13.0578 64.4623ZM71.6932 72.2852C71.6932 72.5706 71.461 72.8027 71.1756 72.8027H37.7823C37.497 72.8027 37.2646 72.5706 37.2646 72.2852V66.6598H38.7406V70.2283C38.7406 70.835 39.2324 71.3269 39.8393 71.3269H69.1187C69.7256 71.3269 70.2173 70.835 70.2173 70.2283V50.5399C70.2173 49.9332 69.7256 49.4413 69.1187 49.4413H57.4345V47.9653H71.1756C71.461 47.9653 71.6932 48.1975 71.6932 48.4828V72.2852Z" fill="#364C49"/>
</g>
<defs>
<clipPath id="clip0_529:511">
<rect width="75" height="75" fill="white"/>
</clipPath>
</defs>
</svg>
