<svg width="75" height="75" viewBox="0 0 75 75" fill="none" xmlns="http://www.w3.org/2000/svg">
<path d="M48.4686 8.9139C48.2157 8.73651 47.8999 8.67357 47.5989 8.74109C47.2973 8.80861 47.0387 8.99973 46.8853 9.26752C46.8779 9.28068 46.8687 9.2927 46.8607 9.30471C46.5083 9.80825 45.8119 9.93071 45.3083 9.5788C44.8111 9.2309 44.1262 9.35106 43.7783 9.84831L42.1772 12.1354C41.8293 12.6327 41.9501 13.3176 42.4467 13.6655C42.639 13.8 42.8587 13.8646 43.0762 13.8646C43.4224 13.8646 43.7634 13.701 43.9768 13.396L45.0554 11.855C46.0682 12.1371 47.1686 11.9197 47.9983 11.2662L49.6188 12.4009C50.116 12.7488 50.8004 12.6281 51.1488 12.1314C51.4967 11.6342 51.376 10.9492 50.8788 10.6013L48.4686 8.9139Z" fill="#F23942"/>
<path d="M60.6183 22.7527L59.5397 24.293C59.1918 24.7903 59.3126 25.4752 59.8092 25.8231C60.0015 25.9576 60.2212 26.0217 60.4387 26.0217C60.7848 26.0217 61.1259 25.8586 61.3393 25.553L62.9409 23.2665C63.2888 22.7693 63.1681 22.0843 62.6714 21.7364C62.1679 21.384 62.0448 20.6876 62.3979 20.1835C62.4065 20.1715 62.4145 20.1594 62.4242 20.1486C62.6233 19.9122 62.7143 19.6038 62.6743 19.2977C62.6348 18.9916 62.4683 18.7158 62.2153 18.539L59.8052 16.8515C59.308 16.5036 58.623 16.6244 58.2751 17.1216C57.9267 17.6183 58.048 18.3038 58.5447 18.6517L60.1651 19.7858C59.8344 20.7894 60.0066 21.8972 60.6183 22.7527Z" fill="#F23942"/>
<path d="M54.7884 47.4348C55.3102 47.4348 55.7949 47.6437 56.1531 48.0236C56.5696 48.4642 57.2649 48.4842 57.706 48.0677C58.1478 47.6511 58.1672 46.9559 57.7507 46.5147C56.9845 45.7033 55.9047 45.2375 54.7884 45.2375C52.5419 45.2375 50.7148 47.0652 50.7148 49.3116C50.7148 51.5575 52.5419 53.3852 54.7884 53.3852C55.8767 53.3852 56.8998 52.9617 57.6689 52.1921C58.098 51.763 58.098 51.0672 57.6689 50.6386C57.2403 50.2094 56.5445 50.2094 56.1153 50.6386C55.7611 50.9928 55.2896 51.1879 54.7884 51.1879C53.7538 51.1879 52.9121 50.3462 52.9121 49.3116C52.9121 48.2765 53.7538 47.4348 54.7884 47.4348Z" fill="#F23942"/>
<path d="M64.5703 41.5724V32.773C64.5703 29.7855 62.1396 27.3548 59.1521 27.3548H53.3219C53.6629 24.4091 52.701 21.8181 50.672 20.3974C48.9531 19.194 46.7261 18.9783 44.4007 19.7897C42.2028 20.557 40.1583 22.1695 38.6454 24.3301C37.9754 25.2863 37.4421 26.3002 37.0553 27.3548H29.9027L45.2767 5.39873L66.6102 20.3361L60.9941 27.6772C60.6462 28.1745 60.767 28.8594 61.2636 29.2073C61.7609 29.5552 62.4458 29.4345 62.7937 28.9372L68.7028 21.1784C69.2366 20.418 69.0518 19.3645 68.2902 18.8301L46.119 3.30618C45.7505 3.04755 45.303 2.94798 44.8596 3.0258C44.4161 3.10419 44.0299 3.34967 43.7707 3.71874L38.6855 10.9817V6.60208C38.6855 5.67225 37.929 4.91579 36.9992 4.91579H10.648C9.71819 4.91579 8.96173 5.67225 8.96173 6.60208V18.5002C8.96173 19.1074 9.45383 19.5989 10.0604 19.5989C10.6675 19.5989 11.159 19.1074 11.159 18.5002V7.11363H14.3422V27.3542H11.4182C11.3318 27.3542 11.2454 27.3565 11.159 27.3605V17.0111C11.159 16.4045 10.6675 15.9124 10.0604 15.9124C9.45383 15.9124 8.96173 16.4045 8.96173 17.0111V27.9442C7.20564 28.8414 6 30.669 6 32.773V65.8493C6 68.8368 8.43073 71.2675 11.4182 71.2675H19.6213C20.2284 71.2675 20.72 70.776 20.72 70.1689C20.72 69.5623 20.2284 69.0702 19.6213 69.0702H11.4182C9.64208 69.0702 8.19727 67.6254 8.19727 65.8493V32.773C8.19727 31.3654 9.10478 30.166 10.3648 29.7289C10.3928 29.7209 10.4209 29.7117 10.4477 29.7014C10.7544 29.6041 11.0806 29.5515 11.4188 29.5515H59.1521C60.9282 29.5515 62.3736 30.9969 62.3736 32.773V41.4202H54.5081C50.157 41.4202 46.6168 44.9598 46.6168 49.3114C46.6168 53.6625 50.157 57.2021 54.5081 57.2021H62.3736V65.8493C62.3736 67.6254 60.9282 69.0702 59.1521 69.0702H17.9941C17.387 69.0702 16.8955 69.5623 16.8955 70.1689C16.8955 70.776 17.387 71.2675 17.9941 71.2675H59.1521C62.1396 71.2675 64.5709 68.8368 64.5709 65.8493V57.0499C67.0565 56.46 68.911 54.2215 68.911 51.5585V47.0644C68.9105 44.4008 67.0559 42.1623 64.5703 41.5724ZM40.445 25.5913C42.9507 22.0127 46.9733 20.4906 49.412 22.1975C50.8168 23.1811 51.4353 25.1112 51.1063 27.3542H39.4299C39.7086 26.7477 40.0473 26.1577 40.445 25.5913ZM36.4882 14.1197L27.2208 27.3548H21.8072V7.11306H36.4882V14.1197ZM16.5394 7.11306H19.6099V27.3542H16.5394V7.11306ZM66.7132 51.5579C66.7132 53.4588 65.1671 55.0049 63.2662 55.0049H54.5081C51.3684 55.0049 48.8141 52.4505 48.8141 49.3109C48.8141 46.1717 51.3684 43.6174 54.5081 43.6174H63.2662C65.1671 43.6174 66.7132 45.1635 66.7132 47.0644V51.5579Z" fill="#364C49"/>
<rect x="11.1992" y="29" width="2" height="41" fill="#364C49"/>
</svg>
