<svg width="50" height="50" viewBox="0 0 50 50" fill="none" xmlns="http://www.w3.org/2000/svg">
<path d="M49.6694 17.0134C49.3997 16.6451 49.0026 16.4039 48.5516 16.3343L34.0262 14.0911V1.71032C34.0262 0.768039 33.2595 0.00134277 32.3173 0.00134277H1.70898C0.766696 0.00134277 0 0.768039 0 1.71032V32.3379C0 33.2802 0.766696 34.0469 1.70898 34.0469H13.1158L11.6777 43.3597C11.5353 44.2812 12.1842 45.1674 13.1058 45.3096L43.3554 49.9811C44.2562 50.1202 45.165 49.4604 45.3051 48.5529L46.0873 43.4878C46.2318 42.552 44.7841 42.3281 44.6397 43.2643C44.5411 43.9021 44.0861 48.6096 43.5789 48.5335L13.3293 43.8619C13.1844 43.8254 13.1164 43.7325 13.1253 43.5833L14.598 34.047H16.2369L15.0456 41.7608C14.9839 42.1607 15.2579 42.5348 15.6578 42.5965L41.7407 46.6246C42.1088 46.6812 42.5184 46.3872 42.5763 46.0125L46.6115 19.8831C46.6733 19.4833 46.3992 19.1092 45.9994 19.0475L34.0261 17.1983V15.5734L48.3279 17.782C48.4729 17.8186 48.5408 17.9114 48.5319 18.0606L44.6397 43.2643C44.4991 44.1741 45.9404 44.4391 46.0873 43.4878L49.9796 18.2842C50.0493 17.833 49.9391 17.3817 49.6694 17.0134ZM1.46484 32.3379V1.71032C1.46484 1.57565 1.57441 1.46618 1.70898 1.46618H32.3172C32.4517 1.46618 32.5613 1.57565 32.5613 1.71032V32.3379C32.5613 32.4726 32.4517 32.5821 32.3172 32.5821H1.70898C1.57441 32.5821 1.46484 32.4726 1.46484 32.3379ZM45.0521 20.3833L41.2404 45.065L16.6051 41.2605L17.7192 34.0469H32.3172C33.2594 34.0469 34.0261 33.2802 34.0261 32.3379V18.6805L45.0521 20.3833Z" fill="#364C49"/>
<path d="M30.2096 3.07178H3.81738C3.41289 3.07178 3.08496 3.39961 3.08496 3.8042L3.08496 13.3335C3.08496 14.2805 4.5498 14.2805 4.5498 13.3335V4.53662H29.477V29.5109H4.5498V11.3606C4.5498 10.4136 3.08496 10.4136 3.08496 11.3606V30.2433C3.08496 30.6479 3.41289 30.9758 3.81738 30.9758H30.2095C30.614 30.9758 30.9419 30.6479 30.9419 30.2433V3.8042C30.942 3.39961 30.6141 3.07178 30.2096 3.07178Z" fill="#364C49"/>
<path d="M17.0129 24.31C17.1085 24.31 17.2041 24.2913 17.294 24.2538C17.3763 24.2196 19.3296 23.3991 21.3157 21.8488C24.0233 19.7354 25.4727 17.2722 25.507 14.7255C25.543 12.0616 23.5136 9.4668 20.7217 9.4668C19.2608 9.4668 17.9076 10.194 17.0128 11.3965C16.1181 10.194 14.7648 9.4668 13.3039 9.4668C10.6652 9.4668 8.51855 11.8213 8.51855 14.7155C8.51855 20.8473 16.4017 24.1198 16.7372 24.2561C16.8257 24.2921 16.9193 24.31 17.0129 24.31ZM9.9835 14.7155C9.9835 12.6291 11.473 10.9316 13.304 10.9316C14.6062 10.9316 15.7947 11.8072 16.332 13.1623C16.5717 13.7666 17.4541 13.7666 17.6938 13.1623C18.231 11.8072 19.4195 10.9316 20.7217 10.9316C22.7033 10.9316 24.0675 12.8437 24.0423 14.7057C23.9812 19.2393 18.3383 22.1525 17.0091 22.776C15.6705 22.1629 9.9835 19.2882 9.9835 14.7155Z" fill="#F23942"/>
</svg>
