<svg width="43" height="46" viewBox="0 0 43 46" fill="none" xmlns="http://www.w3.org/2000/svg">
<path d="M28.3121 3.94256C28.1435 3.8243 27.9329 3.78234 27.7323 3.82735C27.5312 3.87237 27.3588 3.99978 27.2566 4.17831C27.2516 4.18708 27.2455 4.19509 27.2402 4.2031C27.0052 4.53879 26.5409 4.62043 26.2052 4.38583C25.8737 4.15389 25.4171 4.234 25.1852 4.5655L24.1178 6.09023C23.8859 6.42173 23.9664 6.87835 24.2975 7.11028C24.4257 7.19993 24.5722 7.24303 24.7171 7.24303C24.9479 7.24303 25.1753 7.13393 25.3176 6.93061L26.0366 5.90331C26.7118 6.09138 27.4454 5.94642 27.9985 5.51078L29.0788 6.26723C29.4103 6.49917 29.8666 6.41868 30.0989 6.08756C30.3308 5.75606 30.2503 5.29945 29.9188 5.06751L28.3121 3.94256Z" fill="#F23942"/>
<path d="M36.4125 13.1685L35.6935 14.1954C35.4615 14.5269 35.542 14.9835 35.8731 15.2155C36.0013 15.3051 36.1478 15.3478 36.2928 15.3478C36.5235 15.3478 36.7509 15.2391 36.8932 15.0354L37.9609 13.511C38.1929 13.1795 38.1124 12.7229 37.7813 12.491C37.4456 12.256 37.3635 11.7918 37.5989 11.4557C37.6046 11.4477 37.61 11.4397 37.6165 11.4324C37.7492 11.2749 37.8099 11.0693 37.7832 10.8652C37.7568 10.6611 37.6458 10.4772 37.4772 10.3593L35.8705 9.23439C35.539 9.00246 35.0824 9.08295 34.8504 9.41444C34.6181 9.74556 34.699 10.2026 35.0301 10.4345L36.1104 11.1906C35.8899 11.8597 36.0048 12.5982 36.4125 13.1685Z" fill="#F23942"/>
<path d="M32.5253 29.6232C32.8732 29.6232 33.1963 29.7624 33.4351 30.0157C33.7128 30.3094 34.1763 30.3228 34.4704 30.0451C34.7649 29.7674 34.7778 29.3039 34.5001 29.0098C33.9893 28.4688 33.2695 28.1583 32.5253 28.1583C31.0276 28.1583 29.8096 29.3767 29.8096 30.8744C29.8096 32.3717 31.0276 33.5901 32.5253 33.5901C33.2508 33.5901 33.9329 33.3078 34.4456 32.7947C34.7317 32.5086 34.7317 32.0447 34.4456 31.759C34.1599 31.4729 33.696 31.4729 33.4099 31.759C33.1738 31.9951 32.8594 32.1252 32.5253 32.1252C31.8356 32.1252 31.2744 31.5641 31.2744 30.8744C31.2744 30.1843 31.8356 29.6232 32.5253 29.6232Z" fill="#F23942"/>
<path d="M39.0469 25.7149V19.8487C39.0469 17.857 37.4264 16.2365 35.4347 16.2365H31.5479C31.7753 14.2727 31.134 12.5454 29.7813 11.5982C28.6354 10.796 27.1507 10.6522 25.6004 11.1931C24.1352 11.7047 22.7722 12.7797 21.7636 14.2201C21.3169 14.8575 20.9614 15.5335 20.7035 16.2365H15.9351L26.1845 1.59916L40.4068 11.5574L36.6628 16.4515C36.4308 16.783 36.5113 17.2396 36.8424 17.4715C37.1739 17.7035 37.6306 17.623 37.8625 17.2915L41.8018 12.1189C42.1577 11.612 42.0345 10.9097 41.5268 10.5534L26.746 0.204121C26.5003 0.0316971 26.202 -0.0346787 25.9064 0.0172012C25.6107 0.0694626 25.3532 0.233113 25.1804 0.479161L21.7903 5.32116V2.40139C21.7903 1.7815 21.286 1.2772 20.6661 1.2772H3.09868C2.47879 1.2772 1.97449 1.7815 1.97449 2.40139V10.3335C1.97449 10.7382 2.30255 11.0659 2.70691 11.0659C3.11165 11.0659 3.43933 10.7382 3.43933 10.3335V2.74242H5.56145V16.2361H3.61214C3.55454 16.2361 3.49693 16.2377 3.43933 16.2403V9.3407C3.43933 8.93634 3.11165 8.60828 2.70691 8.60828C2.30255 8.60828 1.97449 8.93634 1.97449 9.3407V16.6294C0.803757 17.2276 0 18.446 0 19.8487V41.8995C0 43.8912 1.62048 45.5117 3.61214 45.5117H9.08089C9.48563 45.5117 9.81331 45.184 9.81331 44.7792C9.81331 44.3749 9.48563 44.0468 9.08089 44.0468H3.61214C2.42805 44.0468 1.46484 43.0836 1.46484 41.8995V19.8487C1.46484 18.9103 2.06985 18.1107 2.90985 17.8192C2.92854 17.8139 2.94724 17.8078 2.96516 17.8009C3.16963 17.7361 3.38707 17.701 3.61252 17.701H35.4347C36.6188 17.701 37.5824 18.6646 37.5824 19.8487V25.6134H32.3387C29.438 25.6134 27.0779 27.9732 27.0779 30.8743C27.0779 33.775 29.438 36.1348 32.3387 36.1348H37.5824V41.8995C37.5824 43.0836 36.6188 44.0468 35.4347 44.0468H7.99609C7.59135 44.0468 7.26367 44.3749 7.26367 44.7792C7.26367 45.184 7.59135 45.5117 7.99609 45.5117H35.4347C37.4264 45.5117 39.0472 43.8912 39.0472 41.8995V36.0333C40.7043 35.64 41.9407 34.1477 41.9407 32.3723V29.3763C41.9403 27.6005 40.704 26.1082 39.0469 25.7149ZM22.9633 15.0608C24.6338 12.6751 27.3155 11.6604 28.9413 12.7983C29.8779 13.4541 30.2902 14.7408 30.0709 16.2361H22.2866C22.4724 15.8318 22.6982 15.4385 22.9633 15.0608ZM20.3255 7.41314L14.1472 16.2365H10.5381V2.74204H20.3255V7.41314ZM7.02629 2.74204H9.07326V16.2361H7.02629V2.74204ZM40.4755 32.3719C40.4755 33.6392 39.4447 34.6699 38.1775 34.6699H32.3387C30.2456 34.6699 28.5427 32.967 28.5427 30.8739C28.5427 28.7812 30.2456 27.0783 32.3387 27.0783H38.1775C39.4447 27.0783 40.4755 28.109 40.4755 29.3763V32.3719Z" fill="#364C49"/>
</svg>
