<svg width="50" height="50" viewBox="0 0 50 50" fill="none" xmlns="http://www.w3.org/2000/svg">
<path d="M11.5971 33.0984H33.8447C34.7253 33.0984 35.4417 32.382 35.4417 31.5013V4.79641C35.4417 3.91575 34.7253 3.19934 33.8447 3.19934H11.5971C10.7164 3.19934 10 3.91575 10 4.79641V31.5013C10 32.3819 10.7164 33.0984 11.5971 33.0984ZM11.4648 4.79641C11.4648 4.72346 11.5241 4.66418 11.5971 4.66418H33.8447C33.9175 4.66418 33.9769 4.72346 33.9769 4.79641V31.5013C33.9769 31.5742 33.9176 31.6335 33.8447 31.6335H11.5971C11.5241 31.6335 11.4648 31.5742 11.4648 31.5013V4.79641Z" fill="#364C49"/>
<path d="M15.5152 20.3804L15.6373 20.2563V25.6434C15.6373 26.6194 16.4314 27.4134 17.4073 27.4134H28.1115C29.0875 27.4134 29.8816 26.6193 29.8816 25.6434V20.2562L30.0039 20.3805C30.7948 21.1829 32.0781 21.1855 32.8738 20.4017C33.26 20.0212 33.4749 19.5131 33.4788 18.971C33.4828 18.429 33.2755 17.9178 32.895 17.5316L24.2051 8.7118C23.4119 7.90673 22.1078 7.90585 21.3139 8.7118L12.6237 17.5316C11.8385 18.3288 11.8481 19.6162 12.6451 20.4017C13.4423 21.1869 14.7298 21.1774 15.5152 20.3804ZM28.4167 25.6434C28.4167 25.8117 28.2798 25.9485 28.1115 25.9485H17.4074C17.2391 25.9485 17.1023 25.8116 17.1023 25.6434V18.7696L22.7596 13.0277L28.4168 18.7695V25.6434H28.4167ZM13.6673 18.5597L22.3574 9.73983C22.5778 9.516 22.9408 9.51571 23.1616 9.73983L31.8516 18.5597C32.0701 18.7814 32.0675 19.1396 31.8457 19.3582C31.6233 19.5772 31.2662 19.5745 31.0473 19.3522L23.2812 11.4701C22.9944 11.1789 22.5242 11.1792 22.2377 11.4701L14.4716 19.3521C14.253 19.5738 13.8948 19.5766 13.6732 19.3581C13.4515 19.1397 13.4488 18.7814 13.6673 18.5597Z" fill="#F23942"/>
<path d="M19.2001 18.6533C18.1232 20.0159 18.8803 21.8131 20.0712 22.7725L22.0292 24.348C22.4532 24.689 23.0685 24.6891 23.4926 24.3475L25.4477 22.7722C26.0629 22.2767 26.5089 21.6149 26.7374 20.8585C26.9667 20.0996 26.81 19.2753 26.3185 18.6532C25.5892 17.7306 24.2161 17.3233 22.7593 18.3032C21.3187 17.3341 19.9405 17.7164 19.2001 18.6533ZM25.1693 19.5616C25.3639 19.8079 25.426 20.1344 25.3351 20.4349C25.1923 20.908 24.9135 21.3218 24.5288 21.6316L22.7605 23.0563L20.9899 21.6316C20.4531 21.1992 19.8147 20.2382 20.3494 19.5616C20.8657 18.9082 21.6531 19.2215 22.269 19.7765C22.5476 20.0276 22.971 20.0276 23.2497 19.7765C23.8689 19.2184 24.6545 18.9103 25.1693 19.5616Z" fill="#F23942"/>
<path d="M35.3333 39.6434V37.0061C35.3333 36.1255 34.6169 35.4091 33.7363 35.4091H11.5971C10.7164 35.4091 10 36.1255 10 37.0061V39.6434C10 40.5241 10.7164 41.2405 11.5971 41.2405H33.7364C34.6169 41.2405 35.3333 40.524 35.3333 39.6434ZM11.4648 39.6434V37.0061C11.4648 36.9332 11.5241 36.8739 11.5971 36.8739H33.7364C33.8092 36.8739 33.8686 36.9332 33.8686 37.0061V39.6434C33.8686 39.7164 33.8093 39.7757 33.7364 39.7757H11.5971C11.5241 39.7757 11.4648 39.7163 11.4648 39.6434Z" fill="#364C49"/>
<path d="M47.4501 30.512H44.8175V29.1212C44.8175 28.7167 44.4896 28.3888 44.0851 28.3888C43.6805 28.3888 43.3526 28.7167 43.3526 29.1212V30.512H42.3687V21.7539C42.3687 21.3494 42.0408 21.0215 41.6362 21.0215H38.2895V20.0375H43.0076C43.1979 20.0375 43.3526 20.1923 43.3526 20.3825V29.8166C43.3526 30.2211 43.6805 30.549 44.0851 30.549C44.4896 30.549 44.8175 30.2211 44.8175 29.8166V20.3825C44.8175 19.3846 44.0057 18.5727 43.0076 18.5727H38.2895V1.68359C38.2895 0.755274 37.5342 0 36.6059 0C35.9267 0 3.80576 0 3.23486 0C1.85879 0 0.739258 1.11953 0.739258 2.49561V14C0.739258 14.4045 1.06719 14.7324 1.47168 14.7324C1.87617 14.7324 2.2041 14.4045 2.2041 14V2.49561C2.2041 1.92725 2.6665 1.46484 3.23486 1.46484H7.24014V42.9749H3.23486C2.6665 42.9749 2.2041 42.5126 2.2041 41.9442V10.39C2.2041 9.98555 1.87617 9.65762 1.47168 9.65762C1.06719 9.65762 0.739258 9.98555 0.739258 10.39V41.9442C0.739258 43.3203 1.85879 44.4397 3.23486 44.4397H23.378V48.19C23.378 49.188 24.1899 49.9999 25.188 49.9999H47.4502C48.4481 49.9999 49.2601 49.188 49.2601 48.19V32.3219C49.26 31.3239 48.448 30.512 47.4501 30.512ZM38.2894 22.4863H40.9037V30.512H38.2894V22.4863ZM38.2894 42.7562V34.4256H45.3464V46.0863H27.2916V44.4397H36.6058C37.5341 44.4397 38.2894 43.6846 38.2894 42.7562ZM8.70488 42.9749V1.46484H36.6058C36.7264 1.46484 36.8245 1.56299 36.8245 1.68359V42.7562C36.8245 42.8768 36.7264 42.9749 36.6058 42.9749C35.2954 42.9749 9.64482 42.9749 8.70488 42.9749ZM47.7951 48.1901C47.7951 48.3804 47.6403 48.5352 47.4501 48.5352H25.1879C24.9977 48.5352 24.8428 48.3804 24.8428 48.1901V44.4398H25.8268V46.8188C25.8268 47.2233 26.1546 47.5513 26.5592 47.5513H46.0788C46.4834 47.5513 46.8112 47.2233 46.8112 46.8188V33.6933C46.8112 33.2888 46.4834 32.9608 46.0788 32.9608H38.2894V31.9769H47.4501C47.6403 31.9769 47.7951 32.1316 47.7951 32.3219V48.1901Z" fill="#364C49"/>
</svg>
