<svg width="32" height="32" viewBox="0 0 32 32" fill="none" xmlns="http://www.w3.org/2000/svg">
<g clip-path="url(#clip0_529:540)">
<path d="M16.3149 32C16.209 32 16.103 32 15.9963 31.9995C13.488 32.0056 11.1704 31.9419 8.9165 31.8047C6.8501 31.6789 4.96387 30.9648 3.46143 29.7397C2.01172 28.5576 1.02173 26.9592 0.519043 24.9895C0.081543 23.2746 0.0583496 21.5913 0.0361328 19.9631C0.0200195 18.7949 0.00341797 17.4106 0 16.0029C0.00341797 14.5893 0.0200195 13.2051 0.0361328 12.0368C0.0583496 10.4089 0.081543 8.72556 0.519043 7.01047C1.02173 5.04074 2.01172 3.44235 3.46143 2.26023C4.96387 1.03513 6.8501 0.321016 8.91675 0.195284C11.1707 0.0583209 13.4888 -0.00564398 16.0024 0.000459543C18.5115 -0.00491155 20.8284 0.0583209 23.0823 0.195284C25.1487 0.321016 27.0349 1.03513 28.5374 2.26023C29.9873 3.44235 30.9771 5.04074 31.4797 7.01047C31.9172 8.72531 31.9404 10.4089 31.9626 12.0368C31.9788 13.2051 31.9956 14.5893 31.9988 15.997V16.0029C31.9956 17.4106 31.9788 18.7949 31.9626 19.9631C31.9404 21.591 31.9175 23.2744 31.4797 24.9895C30.9771 26.9592 29.9873 28.5576 28.5374 29.7397C27.0349 30.9648 25.1487 31.6789 23.0823 31.8047C20.9238 31.936 18.7065 32 16.3149 32ZM15.9963 29.4995C18.4639 29.5053 20.7295 29.4431 22.9304 29.3093C24.4929 29.2143 25.8477 28.7073 26.9575 27.8022C27.9834 26.9656 28.6899 25.8113 29.0574 24.3713C29.4216 22.9438 29.4426 21.4111 29.4629 19.9289C29.4788 18.7685 29.4954 17.394 29.4988 16C29.4954 14.6057 29.4788 13.2314 29.4629 12.071C29.4426 10.5888 29.4216 9.05612 29.0574 7.62839C28.6899 6.18845 27.9834 5.03415 26.9575 4.19748C25.8477 3.2927 24.4929 2.78562 22.9304 2.69065C20.7295 2.55661 18.4639 2.49484 16.0022 2.50022C13.5352 2.49436 11.2693 2.55661 9.06836 2.69065C7.50586 2.78562 6.15112 3.2927 5.04126 4.19748C4.01538 5.03415 3.30884 6.18845 2.94141 7.62839C2.57715 9.05612 2.55615 10.5886 2.53589 12.071C2.52002 13.2324 2.50342 14.6076 2.5 16.0029C2.50342 17.3921 2.52002 18.7676 2.53589 19.9289C2.55615 21.4111 2.57715 22.9438 2.94141 24.3713C3.30884 25.8113 4.01538 26.9656 5.04126 27.8022C6.15112 28.707 7.50586 29.2141 9.06836 29.3091C11.2693 29.4431 13.5356 29.5056 15.9963 29.4995ZM15.9368 23.8125C11.6292 23.8125 8.12427 20.3078 8.12427 16C8.12427 11.6921 11.6292 8.18747 15.9368 8.18747C20.2446 8.18747 23.7493 11.6921 23.7493 16C23.7493 20.3078 20.2446 23.8125 15.9368 23.8125ZM15.9368 10.6875C13.0076 10.6875 10.6243 13.0708 10.6243 16C10.6243 18.9292 13.0076 21.3125 15.9368 21.3125C18.8662 21.3125 21.2493 18.9292 21.2493 16C21.2493 13.0708 18.8662 10.6875 15.9368 10.6875ZM24.6243 5.68747C23.5889 5.68747 22.7493 6.52683 22.7493 7.56247C22.7493 8.59812 23.5889 9.43747 24.6243 9.43747C25.6599 9.43747 26.4993 8.59812 26.4993 7.56247C26.4993 6.52683 25.6599 5.68747 24.6243 5.68747Z" fill="#666666"/>
</g>
<defs>
<clipPath id="clip0_529:540">
<rect width="32" height="32" fill="#666666"/>
</clipPath>
</defs>
</svg>
