<svg width="158" height="80" viewBox="0 0 158 80" fill="none" xmlns="http://www.w3.org/2000/svg">
<path d="M90.8531 39.3918C88.9792 45.8068 88.4956 52.4863 87.1582 58.9996C86.8786 60.3748 87.604 63.0496 85.1407 62.5736C82.9721 62.158 81.0227 60.3446 81.5894 57.5866C82.6472 52.4259 83.894 47.2954 85.0803 42.1573C85.3598 40.9408 85.7074 39.7393 86.1759 37.941C84.2944 40.034 82.9343 41.855 81.272 43.336C76.6326 47.4843 72.1292 47.182 68.2077 42.4897C67.0289 41.0843 66.5831 41.9381 66.092 42.8675C65.0266 44.8925 63.8101 46.8269 61.8833 48.1039C58.6342 50.2649 55.3398 48.6932 55.2944 44.8397C55.2189 38.3944 58.0675 32.6443 60.1378 26.7506C60.8028 24.8616 63.0167 25.2242 64.4599 25.7834C65.9484 26.3652 64.9057 27.7328 64.5657 28.7076C63.1074 32.9843 61.513 37.2156 60.1454 41.5226C59.7676 42.7164 59.1178 44.4921 60.8481 45.157C62.2158 45.6784 63.0847 44.2881 63.8176 43.2907C66.3036 39.898 67.5579 35.9236 69.0086 32.0398C70.4896 28.0955 72.3862 24.4233 76.2775 22.285C78.4914 21.0684 80.7884 20.6604 83.0477 22.2018C84.9896 23.5317 85.1558 25.5567 84.846 27.6044C84.4078 30.4606 82.957 31.9189 79.859 30.7401C79.7608 29.108 81.408 28.4582 81.7405 27.1284C81.9898 26.1159 82.2468 25.058 81.272 24.3629C80.3426 23.7055 79.4057 24.0379 78.5065 24.6953C75.3859 26.9848 72.4542 36.9738 73.8142 40.7745C74.6454 43.1093 76.1944 43.4796 78.2874 42.4973C82.6548 40.4345 85.1558 36.7018 87.0222 32.4931C89.9463 25.9043 90.9059 18.7336 93.0065 11.8954C93.4145 10.5656 93.1727 8.18543 94.9409 8.397C97.1094 8.66146 98.0766 10.7318 97.6912 13.0364C96.3236 21.2347 93.9057 29.1609 91.4726 37.0872C90.8984 37.7672 91.6313 38.7797 90.8531 39.3918Z" fill="#F23942"/>
<path d="M35.6366 51.338C44.4469 45.0438 48.1343 35.7953 49.8948 25.6853C51.0887 18.8471 46.9933 14.9029 40.14 16.1572C23.5999 19.1796 12.5606 29.35 5.45035 44.0842C3.312 48.512 5.03477 50.8015 9.90084 50.93C11.737 50.9829 13.5806 50.7637 15.5301 50.6655C13.6033 54.4133 9.82528 56.0378 5.72992 55.0555C1.94436 54.1413 -0.0806558 51.3682 0.00246041 47.3182C0.0553525 44.9909 0.652278 42.7695 1.78568 40.8276C9.96884 26.8263 21.182 16.5199 37.3065 12.5379C41.349 11.5405 45.5426 11.4574 49.5926 12.9081C52.8492 14.0717 55.0254 16.399 55.2143 19.8143C55.9094 32.3724 52.2221 43.3664 42.9282 52.154C41.7646 53.2572 40.4347 54.2924 38.7119 54.4888C36.9892 54.111 34.8584 54.1413 35.6366 51.338Z" fill="#F23942"/>
<path d="M90.8582 39.3921C90.8657 38.5761 90.6844 37.7071 91.4702 37.1027C91.4249 38.697 92.1049 38.5912 93.3214 38.0774C102.011 34.4278 110.851 19.5878 109.854 10.2033C109.461 6.53103 107.338 4.24911 103.114 3.76553C93.6614 2.69258 85.2138 5.83588 77.4765 10.8833C73.8496 13.2483 70.0187 15.6814 68.2959 20.1016C68.0466 20.7439 67.3665 21.3106 66.7545 21.6884C65.2433 22.6102 63.2863 23.7965 61.9262 22.3911C60.7701 21.1973 62.3795 19.5954 63.2863 18.5224C74.0007 5.81321 87.5486 -0.843639 104.331 0.0857505C111.297 0.471107 115.506 5.25406 114.932 12.2132C114.108 22.1795 110.156 30.9521 102.887 37.9489C99.0262 41.6665 95.6487 41.8781 90.8582 39.3921Z" fill="#F23942"/>
<path d="M35.6441 51.336C35.6668 53.3686 37.994 53.1419 38.7194 54.4869C36.0823 56.323 34.0271 54.7967 31.6696 52.9681C29.4104 60.7886 27.8689 68.4504 27.4231 76.3389C27.3476 77.6385 27.9445 79.4142 26.1537 79.8978C24.2194 80.4116 23.222 78.8475 22.3531 77.4269C21.5294 76.0895 21.333 74.6161 21.5899 73.0596C24.2194 56.7839 28.6245 40.9012 32.6519 24.9353C33.1506 22.9556 33.9667 22.7743 35.5156 23.9001C37.722 25.5096 38.3794 27.4817 37.6238 30.149C35.8708 36.3147 34.2462 42.5182 32.6368 48.7216C32.3648 49.7719 31.3069 51.0413 32.1985 51.9103C33.2791 52.9681 34.4276 51.3134 35.6441 51.336Z" fill="#F23942"/>
<path d="M156.857 17.0948C154.749 21.2431 152.572 25.1042 148.462 27.2577C145.349 28.8897 143.203 27.7261 142.954 24.2806C142.667 20.2986 143.445 16.4828 145.674 13.1203C146.89 11.2842 148.734 8.38273 150.736 9.78814C153.525 11.7376 150.192 13.4755 149.066 15.168C149.006 15.2663 149.021 15.4098 149.006 15.5383C152.187 17.0268 153.736 16.4299 154.567 13.347C155.179 11.0802 154.741 8.97965 152.875 7.56668C150.729 5.94213 148.288 6.39549 146.112 7.58934C142.002 9.83348 139.878 13.6719 138.382 17.9033C137.294 20.9786 136.471 24.1672 134.786 27.0007C133.909 28.4817 133.01 30.8014 131.098 30.1365C128.952 29.3884 130.108 27.0612 130.592 25.5273C131.831 21.5755 133.35 17.7144 134.703 13.7928C135.043 12.8106 136.085 11.5411 134.642 10.8158C133.433 10.2113 131.869 10.1962 130.72 11.1709C130.101 11.6923 129.791 12.5839 129.187 13.5662C127.721 11.6545 126.096 11.0576 123.897 12.0172C117.679 14.7373 111.596 25.8447 112.813 32.5091C113.644 37.0502 117.739 38.5992 121.215 35.539C122.756 34.1865 123.913 32.4033 125.303 30.7485C125.922 32.6678 126.874 34.0883 129.005 34.0581C134.06 33.9749 135.194 29.5169 137.332 26.1016C141.42 32.5166 146.928 33.1438 152.187 28.0359C154.477 25.8145 156.078 23.1321 157.484 20.291C158.088 19.0745 158.224 18.062 156.857 17.0948ZM127.66 17.2006C126.618 22.3009 124.834 27.0763 121.449 31.1263C120.89 31.7988 120.225 32.4637 119.22 32.2446C118.533 32.0935 118.208 30.9828 118.351 29.5093C119.47 24.6735 121.011 19.9283 124.509 16.0823C125.106 15.4249 125.839 14.6769 126.738 14.9565C127.706 15.2587 127.842 16.3014 127.66 17.2006Z" fill="#F23942"/>
</svg>
