<svg width="158" height="80" viewBox="0 0 158 80" fill="none" xmlns="http://www.w3.org/2000/svg">
<path d="M90.8492 39.3918C88.9753 45.8068 88.4917 52.4863 87.1543 58.9996C86.8747 60.3748 87.6001 63.0496 85.1368 62.5736C82.9682 62.158 81.0188 60.3446 81.5855 57.5867C82.6433 52.4259 83.8901 47.2954 85.0763 42.1573C85.3559 40.9408 85.7035 39.7393 86.172 37.941C84.2905 40.034 82.9304 41.855 81.2681 43.336C76.6287 47.4843 72.1253 47.182 68.2038 42.4897C67.025 41.0843 66.5792 41.9381 66.0881 42.8675C65.0227 44.8925 63.8062 46.8269 61.8794 48.1039C58.6303 50.2649 55.3359 48.6932 55.2905 44.8397C55.215 38.3944 58.0636 32.6443 60.1339 26.7506C60.7989 24.8616 63.0128 25.2242 64.456 25.7834C65.9445 26.3652 64.9018 27.7328 64.5618 28.7076C63.1035 32.9843 61.5091 37.2156 60.1415 41.5226C59.7637 42.7164 59.1139 44.4921 60.8442 45.157C62.2118 45.6784 63.0808 44.2881 63.8137 43.2907C66.2996 39.898 67.554 35.9236 69.0047 32.0398C70.4857 28.0955 72.3822 24.4233 76.2736 22.285C78.4875 21.0684 80.7845 20.6604 83.0438 22.2018C84.9857 23.5317 85.1519 25.5567 84.8421 27.6044C84.4039 30.4606 82.9531 31.9189 79.8551 30.7401C79.7569 29.108 81.4041 28.4582 81.7366 27.1284C81.9859 26.1159 82.2428 25.058 81.2681 24.3629C80.3387 23.7055 79.4018 24.038 78.5026 24.6953C75.382 26.9848 72.4502 36.9738 73.8103 40.7745C74.6415 43.1093 76.1905 43.4796 78.2835 42.4973C82.6509 40.4345 85.1519 36.7018 87.0182 32.4931C89.9424 25.9043 90.902 18.7336 93.0026 11.8954C93.4106 10.5656 93.1688 8.18543 94.937 8.397C97.1055 8.66146 98.0727 10.7318 97.6873 13.0364C96.3197 21.2347 93.9018 29.1609 91.4687 37.0872C90.8945 37.7672 91.6274 38.7797 90.8492 39.3918Z" fill="white"/>
<path d="M35.6366 51.338C44.4469 45.0438 48.1343 35.7953 49.8948 25.6853C51.0887 18.8471 46.9933 14.9029 40.14 16.1572C23.5999 19.1796 12.5606 29.35 5.45035 44.0842C3.312 48.512 5.03477 50.8015 9.90084 50.93C11.737 50.9829 13.5806 50.7637 15.5301 50.6655C13.6033 54.4133 9.82528 56.0378 5.72992 55.0556C1.94436 54.1413 -0.0806558 51.3682 0.00246041 47.3182C0.0553525 44.9909 0.652278 42.7695 1.78568 40.8276C9.96884 26.8263 21.182 16.5199 37.3065 12.5379C41.349 11.5405 45.5426 11.4574 49.5926 12.9081C52.8492 14.0717 55.0254 16.399 55.2143 19.8143C55.9094 32.3724 52.2221 43.3664 42.9282 52.154C41.7646 53.2572 40.4347 54.2924 38.7119 54.4889C36.9892 54.1111 34.8584 54.1413 35.6366 51.338Z" fill="white"/>
<path d="M90.8484 39.3921C90.856 38.5761 90.6746 37.7071 91.4604 37.1027C91.4151 38.697 92.0951 38.5912 93.3117 38.0774C102.001 34.4278 110.842 19.5878 109.844 10.2033C109.451 6.53103 107.328 4.24911 103.104 3.76553C93.6517 2.69258 85.2041 5.83588 77.4667 10.8833C73.8398 13.2483 70.0089 15.6814 68.2861 20.1016C68.0368 20.7439 67.3568 21.3106 66.7447 21.6884C65.2335 22.6102 63.2765 23.7965 61.9164 22.3911C60.7604 21.1973 62.3698 19.5954 63.2765 18.5224C73.9909 5.81321 87.5389 -0.843639 104.321 0.0857505C111.287 0.471107 115.496 5.25406 114.922 12.2132C114.098 22.1795 110.146 30.9521 102.878 37.9489C99.0164 41.6665 95.6389 41.8781 90.8484 39.3921Z" fill="white"/>
<path d="M35.6363 51.338C35.6589 53.3705 37.9862 53.1439 38.7116 54.4888C36.0745 56.3249 34.0193 54.7986 31.6618 52.9701C29.4026 60.7906 27.8611 68.4524 27.4153 76.3408C27.3398 77.6405 27.9367 79.4161 26.1459 79.8997C24.2116 80.4135 23.2142 78.8494 22.3452 77.4289C21.5216 76.0915 21.3252 74.6181 21.5821 73.0615C24.2116 56.7859 28.6167 40.9031 32.6441 24.9373C33.1428 22.9576 33.9588 22.7762 35.5078 23.9021C37.7142 25.5115 38.3716 27.4836 37.6159 30.1509C35.863 36.3166 34.2384 42.5201 32.629 48.7236C32.357 49.7739 31.2991 51.0433 32.1907 51.9122C33.2712 52.9701 34.4198 51.3153 35.6363 51.338Z" fill="white"/>
<path d="M156.865 17.0938C154.756 21.2421 152.58 25.1032 148.47 27.2567C145.357 28.8888 143.211 27.7251 142.961 24.2796C142.674 20.2976 143.453 16.4818 145.682 13.1194C146.898 11.2833 148.742 8.38175 150.744 9.78717C153.532 11.7366 150.2 13.4745 149.074 15.1671C149.014 15.2653 149.029 15.4088 149.014 15.5373C152.195 17.0258 153.744 16.4289 154.575 13.3461C155.187 11.0792 154.749 8.97867 152.883 7.5657C150.737 5.94116 148.296 6.39452 146.12 7.58837C142.009 9.8325 139.886 13.671 138.39 17.9023C137.302 20.9776 136.478 24.1663 134.793 26.9998C133.917 28.4807 133.018 30.8004 131.106 30.1355C128.96 29.3875 130.116 27.0602 130.6 25.5263C131.839 21.5746 133.358 17.7134 134.71 13.7919C135.05 12.8096 136.093 11.5402 134.65 10.8148C133.441 10.2103 131.877 10.1952 130.728 11.1699C130.109 11.6913 129.799 12.5829 129.194 13.5652C127.729 11.6535 126.104 11.0566 123.905 12.0162C117.687 14.7364 111.604 25.8437 112.821 32.5081C113.652 37.0493 117.747 38.5983 121.223 35.5381C122.764 34.1855 123.92 32.4023 125.311 30.7476C125.93 32.6668 126.882 34.0873 129.013 34.0571C134.068 33.974 135.201 29.5159 137.34 26.1006C141.428 32.5157 146.936 33.1428 152.195 28.0349C154.484 25.8135 156.086 23.1311 157.492 20.29C158.096 19.0735 158.232 18.061 156.865 17.0938ZM127.668 17.1996C126.625 22.2999 124.842 27.0753 121.457 31.1254C120.898 31.7978 120.233 32.4628 119.228 32.2436C118.54 32.0925 118.216 30.9818 118.359 29.5084C119.477 24.6725 121.019 19.9273 124.517 16.0813C125.114 15.424 125.847 14.6759 126.746 14.9555C127.713 15.2577 127.849 16.3005 127.668 17.1996Z" fill="white"/>
</svg>
