<svg width="23" height="24" viewBox="0 0 23 24" fill="none" xmlns="http://www.w3.org/2000/svg">
<path d="M20.5819 10.6371C21.3456 10.6371 21.9396 11.231 21.9396 11.9947C21.9396 12.3765 21.7911 12.6947 21.5366 12.9493C21.282 13.2038 20.9638 13.3523 20.582 13.3523L12.8179 13.3523L12.8179 21.1164C12.8179 21.4982 12.6694 21.8164 12.4149 22.071C12.1603 22.3255 11.8421 22.474 11.4603 22.474C10.6966 22.474 10.1026 21.88 10.1026 21.1164L10.1026 13.3523L2.33862 13.3523C1.57494 13.3523 0.980967 12.7584 0.980967 11.9947C0.980967 11.231 1.57492 10.6371 2.33859 10.6371L10.1026 10.637L10.1026 2.873C10.1026 2.10933 10.6966 1.51538 11.4603 1.51538C12.2239 1.51538 12.8179 2.10935 12.8179 2.87303L12.8179 10.6371L20.5819 10.6371Z" fill="black"/>
</svg>
