<svg width="178" height="101" viewBox="0 0 178 101" fill="none" xmlns="http://www.w3.org/2000/svg">
<g clip-path="url(#clip0_529:384)">
<path d="M0.289871 80.9194C4.26286 86.8017 7.1944 92.9348 9.21947 99.7429C9.58591 100.977 11.1674 101.44 12.1124 100.495C18.8048 93.7448 25.4779 86.9946 32.1703 80.225C33.5011 78.875 31.746 76.4063 30.0874 77.5249C25.5936 80.5529 21.6592 83.9859 18.1298 87.9203C20.367 68.2096 27.773 47.3803 41.6206 33.0698C61.3506 12.6841 81.9678 29.6368 104.109 33.9955C132.093 39.5114 161.968 26.2617 176.973 2.15368C177.513 1.28579 176.163 0.514336 175.603 1.34365C164.668 17.6214 147.503 28.6725 128.062 31.7004C118.014 33.2626 107.792 32.4912 98.1105 29.4439C88.178 26.3195 78.7277 21.1894 68.2937 19.7622C32.3824 14.8441 16.0661 65.7602 14.1954 93.2434C14.1954 93.3205 14.2147 93.3784 14.2147 93.4555C13.3661 94.3041 12.5175 95.172 11.6689 96.0206C9.6245 90.0032 6.90509 84.5066 3.27925 79.145C2.04492 77.3321 -0.963745 79.0679 0.289871 80.9194Z" fill="#BBB5B5"/>
</g>
<defs>
<clipPath id="clip0_529:384">
<rect width="177.088" height="100" fill="white" transform="translate(177.088 100.997) rotate(-180)"/>
</clipPath>
</defs>
</svg>
