<svg width="136" height="61" viewBox="0 0 136 61" fill="none" xmlns="http://www.w3.org/2000/svg">
<path d="M3.30721 15.3428C4.10134 12.2586 5.09535 9.32227 6.29629 6.44574C7.0234 15.1268 8.37853 25.6473 12.6923 33.0347C15.8956 38.5095 20.5085 37.9701 26.1198 36.3226C34.5636 33.8415 41.9881 28.7702 48.4394 22.8754C55.8449 16.1023 62.4186 5.04712 72.9401 3.27508C70.8687 16.7289 67.5959 30.6957 67.0588 44.2273C66.7641 51.6684 71.5805 54.1377 78.3643 52.7959C89.3803 50.6228 97.7635 42.4892 107.197 37.0412C114.909 32.5914 125.259 28.671 131.067 38.1942C135 44.6241 133.595 52.5162 132.598 59.5336C132.477 60.3644 133.71 60.6124 133.881 59.7813C135.568 51.2486 136.996 41.0768 130.367 34.1561C124.571 28.121 116.845 29.8668 110.017 33.1365C104.512 35.7778 99.6098 39.4592 94.5183 42.7862C89.9943 45.746 80.7569 52.5429 74.9292 50.9906C65.7757 48.5578 71.5393 29.5603 72.41 23.6108C73.4676 16.4363 74.5366 9.25396 75.5864 2.06797C75.7038 1.30607 75.1213 0.567952 74.307 0.619269C60.6099 1.65898 52.8177 16.4016 43.0672 24.2613C39.3733 27.2424 35.3484 29.9312 31.0012 31.8725C29.533 32.5325 28.0263 33.1354 26.492 33.6237C22.2288 34.9754 20.8063 35.6045 17.1765 32.6989C10.4857 27.3353 9.39249 14.7898 8.72618 6.05092C9.09033 6.17089 9.43937 6.31773 9.78067 6.45315L14.3884 9.74616C15.6797 10.6708 17.1029 9.00903 15.9937 7.86135C14.4032 6.22348 12.7969 5.07911 10.9402 4.25386C9.76047 3.42027 8.59216 2.57896 7.40469 1.73395C6.76679 1.28306 5.85705 1.36561 5.47971 2.13689C3.49154 6.2617 1.98543 10.4101 0.852197 14.839C0.476457 16.425 2.91199 16.8754 3.30721 15.3428Z" fill="#BBB5B5"/>
</svg>
