<svg width="203" height="84" viewBox="0 0 203 84" fill="none" xmlns="http://www.w3.org/2000/svg">
<path d="M5.20604 82.9394C5.51395 83.4491 6.3009 82.9545 5.99299 82.4448C-2.29168 68.6175 2.76948 51.4109 11.0952 38.8335C20.0453 25.3088 33.9141 14.0094 50.158 11.0812C53.7215 10.4404 57.6431 10.3706 61.5576 10.8561C58.1449 14.0195 55.4305 17.9133 53.7832 22.6322C51.1714 30.1131 51.9185 38.786 57.3929 44.8005C62.0761 49.9539 69.7135 52.8759 76.5067 50.4991C83.3234 48.1133 87.1893 41.2034 87.7329 34.2893C88.3932 25.8874 84.1545 18.4071 77.1823 13.8462C73.8758 11.6847 70.3943 10.2287 66.8271 9.34724C74.7775 4.08089 85.253 1.77959 94.3993 2.05825C106.006 2.40285 117.822 6.56788 126.68 14.1617C119.27 15.8679 112.337 19.0279 106.747 23.8731C94.2746 34.659 97.7333 57.5397 114.723 61.6431C131.256 65.6319 144.645 50.8094 141.595 34.8643C140.152 27.3163 136.312 20.7778 131.059 15.483C142.266 13.5776 154.123 14.9261 164.459 19.1642C181.054 25.9888 193.335 40.5596 198.452 57.5316C194.656 55.0587 191.217 52.2132 188.018 48.9052C187.121 47.9774 185.783 49.4557 186.664 50.3841C190.445 54.3008 194.593 57.5828 199.22 60.3759C199.356 60.9408 199.523 61.5043 199.644 62.0698C199.882 63.1694 201.764 62.8565 201.595 61.7301C201.571 61.5567 201.54 61.3916 201.517 61.2182C201.866 61.0521 202.144 60.6989 202.102 60.2806C201.549 54.9292 200.542 49.7247 199.054 44.5494C198.753 43.4844 196.933 43.747 197.102 44.8892C197.361 46.6142 197.611 48.3475 197.87 50.0725C191.272 34.7516 178.737 22.182 162.822 16.39C152.702 12.7132 140.495 11.5466 129.147 13.6564C121.394 6.67995 111.157 2.15199 101.117 0.659998C88.9383 -1.13417 74.1708 1.11056 64.0267 8.77297C47.5283 6.10679 29.6498 15.2995 18.3604 27.0165C4.75957 41.1584 -6.07218 64.3361 5.20604 82.9394ZM135.057 23.7906C139.544 30.9665 142.034 40.5219 138.498 48.6145C135.365 55.7855 127.52 60.2068 119.831 60.2444C111.326 60.2943 104.365 54.5595 101.973 46.522C99.0143 36.5988 103.563 27.7321 112.148 22.4695C117.212 19.3601 122.834 17.2173 128.67 15.9689C131.08 18.2968 133.249 20.9049 135.057 23.7906ZM85.1778 37.6607C82.9405 46.4414 74.5083 51.5704 65.8213 48.2189C57.3765 44.9677 53.2383 36.3492 54.5886 27.5918C55.6565 20.7022 59.2481 15.3029 64.201 11.2866C77.196 13.798 89.0181 22.617 85.1778 37.6607Z" fill="#BBB5B5"/>
</svg>
