<svg width="165" height="71" viewBox="0 0 165 71" fill="none" xmlns="http://www.w3.org/2000/svg">
<path d="M159.398 55.2772C160.272 51.6658 160.859 48.0971 161.2 44.4765C155.69 53.0164 148.524 63.1057 140.03 68.3462C133.728 72.2264 129.274 69.1408 124.4 64.3663C117.067 57.1801 112.204 47.8858 108.794 38.2774C104.884 27.2412 104.179 12.2521 94.3176 4.65621C89.0707 19.6456 84.7796 35.822 77.9104 50.0499C74.1322 57.8734 67.8184 57.774 61.5692 52.6714C51.4182 44.3913 47.2477 31.418 40.5223 20.6337C35.0226 11.8219 26.5155 2.10772 15.3113 8.72762C7.73513 13.1913 4.85252 22.0882 2.03039 29.8609C1.69897 30.7825 0.293095 30.3615 0.573508 29.4122C3.51653 19.7008 7.62584 8.44396 18.2471 4.95369C27.5259 1.91894 34.5234 7.95428 39.7608 15.0665C43.9808 20.8059 47.0086 27.2853 50.4263 33.5038C53.4611 39.0331 59.2444 51.0985 66.0966 52.6968C76.8561 55.2126 81.342 32.4898 83.7089 25.8863C86.5553 17.9187 89.3942 9.93684 92.2548 1.96171C92.552 1.11285 93.5566 0.672307 94.3669 1.17182C107.9 9.7555 107.837 29.2099 113.566 42.6512C115.734 47.747 118.403 52.7232 121.815 57.1067C122.965 58.5916 124.185 60.0388 125.497 61.3832C129.146 65.1135 130.265 66.5415 135.597 65.5408C145.428 63.6879 153.435 51.3698 158.915 42.7371C158.474 42.6609 158.034 42.6206 157.608 42.5728L151.057 43.4361C149.221 43.6799 148.667 41.1882 150.438 40.6148C152.974 39.8008 155.256 39.5036 157.621 39.6722C159.293 39.461 160.957 39.2356 162.643 39.0169C163.547 38.9025 164.439 39.4865 164.404 40.4876C164.189 45.8254 163.464 50.923 162.202 56.105C161.719 57.9441 158.964 57.0719 159.398 55.2772Z" fill="#BBB5B5"/>
</svg>
